<mxfile host="app.diagrams.net" modified="2021-11-04T01:43:52.287Z" agent="5.0 (Windows NT 10.0; Win64; x64) AppleWebKit/537.36 (KHTML, like Gecko) Chrome/95.0.4638.69 Safari/537.36" etag="Eemj9ShiBv44XWZVGTxV" version="15.6.8" type="github">
  <diagram id="-0BICoxLbI8U1ZFrH4pM" name="Page-1">
    <mxGraphModel dx="1718" dy="935" grid="0" gridSize="10" guides="1" tooltips="1" connect="1" arrows="1" fold="1" page="1" pageScale="1" pageWidth="827" pageHeight="1169" math="0" shadow="0">
      <root>
        <mxCell id="0" />
        <mxCell id="1" parent="0" />
        <mxCell id="wqlNaEWefwMsOeoS0mQ8-5" value="" style="edgeStyle=orthogonalEdgeStyle;rounded=0;orthogonalLoop=1;jettySize=auto;html=1;" edge="1" parent="1" source="wqlNaEWefwMsOeoS0mQ8-1" target="wqlNaEWefwMsOeoS0mQ8-2">
          <mxGeometry relative="1" as="geometry" />
        </mxCell>
        <mxCell id="wqlNaEWefwMsOeoS0mQ8-1" value="开始" style="rounded=1;whiteSpace=wrap;html=1;" vertex="1" parent="1">
          <mxGeometry x="58.5" y="67" width="103" height="34" as="geometry" />
        </mxCell>
        <mxCell id="wqlNaEWefwMsOeoS0mQ8-7" value="" style="edgeStyle=orthogonalEdgeStyle;rounded=0;orthogonalLoop=1;jettySize=auto;html=1;" edge="1" parent="1" source="wqlNaEWefwMsOeoS0mQ8-2" target="wqlNaEWefwMsOeoS0mQ8-6">
          <mxGeometry relative="1" as="geometry" />
        </mxCell>
        <mxCell id="wqlNaEWefwMsOeoS0mQ8-2" value="初始化新增用户&lt;br&gt;信息列表" style="rounded=0;whiteSpace=wrap;html=1;" vertex="1" parent="1">
          <mxGeometry x="50" y="174" width="120" height="60" as="geometry" />
        </mxCell>
        <mxCell id="wqlNaEWefwMsOeoS0mQ8-9" value="" style="edgeStyle=orthogonalEdgeStyle;rounded=0;orthogonalLoop=1;jettySize=auto;html=1;" edge="1" parent="1" source="wqlNaEWefwMsOeoS0mQ8-6" target="wqlNaEWefwMsOeoS0mQ8-8">
          <mxGeometry relative="1" as="geometry" />
        </mxCell>
        <mxCell id="wqlNaEWefwMsOeoS0mQ8-6" value="录入用户详细信息表单提交" style="rounded=0;whiteSpace=wrap;html=1;" vertex="1" parent="1">
          <mxGeometry x="50" y="296" width="120" height="60" as="geometry" />
        </mxCell>
        <mxCell id="wqlNaEWefwMsOeoS0mQ8-18" style="edgeStyle=orthogonalEdgeStyle;rounded=0;orthogonalLoop=1;jettySize=auto;html=1;entryX=0;entryY=0.5;entryDx=0;entryDy=0;exitX=0.5;exitY=0;exitDx=0;exitDy=0;" edge="1" parent="1" source="wqlNaEWefwMsOeoS0mQ8-8" target="wqlNaEWefwMsOeoS0mQ8-14">
          <mxGeometry relative="1" as="geometry" />
        </mxCell>
        <mxCell id="wqlNaEWefwMsOeoS0mQ8-22" style="edgeStyle=orthogonalEdgeStyle;rounded=0;orthogonalLoop=1;jettySize=auto;html=1;exitX=1;exitY=0.5;exitDx=0;exitDy=0;" edge="1" parent="1" source="wqlNaEWefwMsOeoS0mQ8-8" target="wqlNaEWefwMsOeoS0mQ8-19">
          <mxGeometry relative="1" as="geometry" />
        </mxCell>
        <mxCell id="wqlNaEWefwMsOeoS0mQ8-8" value="用户数据是否为空" style="rhombus;whiteSpace=wrap;html=1;" vertex="1" parent="1">
          <mxGeometry x="240" y="298.5" width="205" height="55" as="geometry" />
        </mxCell>
        <mxCell id="wqlNaEWefwMsOeoS0mQ8-10" value="结束" style="whiteSpace=wrap;html=1;" vertex="1" parent="1">
          <mxGeometry x="685.5" y="296" width="120" height="60" as="geometry" />
        </mxCell>
        <mxCell id="wqlNaEWefwMsOeoS0mQ8-12" value="是" style="text;html=1;align=center;verticalAlign=middle;resizable=0;points=[];autosize=1;strokeColor=none;fillColor=none;" vertex="1" parent="1">
          <mxGeometry x="186.5" y="254" width="22" height="18" as="geometry" />
        </mxCell>
        <mxCell id="wqlNaEWefwMsOeoS0mQ8-17" value="" style="edgeStyle=orthogonalEdgeStyle;rounded=0;orthogonalLoop=1;jettySize=auto;html=1;" edge="1" parent="1" source="wqlNaEWefwMsOeoS0mQ8-14" target="wqlNaEWefwMsOeoS0mQ8-16">
          <mxGeometry relative="1" as="geometry" />
        </mxCell>
        <mxCell id="wqlNaEWefwMsOeoS0mQ8-29" style="edgeStyle=orthogonalEdgeStyle;rounded=0;orthogonalLoop=1;jettySize=auto;html=1;exitX=1;exitY=0.5;exitDx=0;exitDy=0;entryX=0.5;entryY=0;entryDx=0;entryDy=0;" edge="1" parent="1" source="wqlNaEWefwMsOeoS0mQ8-14" target="wqlNaEWefwMsOeoS0mQ8-27">
          <mxGeometry relative="1" as="geometry" />
        </mxCell>
        <mxCell id="wqlNaEWefwMsOeoS0mQ8-14" value="用户名是否已注册" style="rhombus;whiteSpace=wrap;html=1;" vertex="1" parent="1">
          <mxGeometry x="457" y="46" width="205" height="55" as="geometry" />
        </mxCell>
        <mxCell id="wqlNaEWefwMsOeoS0mQ8-25" value="" style="edgeStyle=orthogonalEdgeStyle;rounded=0;orthogonalLoop=1;jettySize=auto;html=1;" edge="1" parent="1" source="wqlNaEWefwMsOeoS0mQ8-16" target="wqlNaEWefwMsOeoS0mQ8-24">
          <mxGeometry relative="1" as="geometry" />
        </mxCell>
        <mxCell id="wqlNaEWefwMsOeoS0mQ8-28" style="edgeStyle=orthogonalEdgeStyle;rounded=0;orthogonalLoop=1;jettySize=auto;html=1;exitX=1;exitY=0.5;exitDx=0;exitDy=0;entryX=0;entryY=0.5;entryDx=0;entryDy=0;" edge="1" parent="1" source="wqlNaEWefwMsOeoS0mQ8-16" target="wqlNaEWefwMsOeoS0mQ8-27">
          <mxGeometry relative="1" as="geometry" />
        </mxCell>
        <mxCell id="wqlNaEWefwMsOeoS0mQ8-16" value="用户组是否存在" style="rhombus;whiteSpace=wrap;html=1;" vertex="1" parent="1">
          <mxGeometry x="457" y="127" width="205" height="55" as="geometry" />
        </mxCell>
        <mxCell id="wqlNaEWefwMsOeoS0mQ8-23" style="edgeStyle=orthogonalEdgeStyle;rounded=0;orthogonalLoop=1;jettySize=auto;html=1;exitX=1;exitY=0.5;exitDx=0;exitDy=0;entryX=0;entryY=0.5;entryDx=0;entryDy=0;" edge="1" parent="1" source="wqlNaEWefwMsOeoS0mQ8-19" target="wqlNaEWefwMsOeoS0mQ8-10">
          <mxGeometry relative="1" as="geometry" />
        </mxCell>
        <mxCell id="wqlNaEWefwMsOeoS0mQ8-19" value="写日志" style="whiteSpace=wrap;html=1;" vertex="1" parent="1">
          <mxGeometry x="499.5" y="296" width="120" height="60" as="geometry" />
        </mxCell>
        <mxCell id="wqlNaEWefwMsOeoS0mQ8-26" value="" style="edgeStyle=orthogonalEdgeStyle;rounded=0;orthogonalLoop=1;jettySize=auto;html=1;" edge="1" parent="1" source="wqlNaEWefwMsOeoS0mQ8-24" target="wqlNaEWefwMsOeoS0mQ8-19">
          <mxGeometry relative="1" as="geometry" />
        </mxCell>
        <mxCell id="wqlNaEWefwMsOeoS0mQ8-24" value="创建新用户&lt;br&gt;更新数据库" style="whiteSpace=wrap;html=1;" vertex="1" parent="1">
          <mxGeometry x="499.5" y="208" width="120" height="49" as="geometry" />
        </mxCell>
        <mxCell id="wqlNaEWefwMsOeoS0mQ8-30" style="edgeStyle=orthogonalEdgeStyle;rounded=0;orthogonalLoop=1;jettySize=auto;html=1;exitX=0.5;exitY=1;exitDx=0;exitDy=0;" edge="1" parent="1" source="wqlNaEWefwMsOeoS0mQ8-27" target="wqlNaEWefwMsOeoS0mQ8-10">
          <mxGeometry relative="1" as="geometry" />
        </mxCell>
        <mxCell id="wqlNaEWefwMsOeoS0mQ8-27" value="写日志" style="whiteSpace=wrap;html=1;" vertex="1" parent="1">
          <mxGeometry x="698" y="139.25" width="95" height="30.5" as="geometry" />
        </mxCell>
      </root>
    </mxGraphModel>
  </diagram>
</mxfile>
